# xmcd CD database file
#
# Track frame offsets:
#	150
#	15620
#	31872
#	44430
#	61880
#	82797
#	98847
#	112865
#	124560
#	139700
#
# Disc length: 2099 seconds
#
# Revision: 0
# Processed by: cddbd v1.5.2PL0 Copyright (c) Steve Scherf et al.
# Submitted via: CDex 1.51
#
DISCID=6e08310a
DTITLE=Various Artist - Music City Hits - Volume One
DYEAR=2005
DGENRE=Country
TTITLE0=She's Not The Cheatin' Kind (Brooks and Dunn)
TTITLE1=A Broken Wing (Martina McBride)
TTITLE2=Ramblin' Man (Waylon Jennings)
TTITLE3=You Had Me From Hello (Kenny Chesney)
TTITLE4=I Keep Looking (Sara Evans)
TTITLE5=The Power Of Love (Charley Pride)
TTITLE6=Pop A Top (Alan Jackson)
TTITLE7=Walkin' After Midnight (Patsy Cline)
TTITLE8=Tie Our Love [In A Double Knot] (Dolly Parton)
TTITLE9=I Beleive (Diamond Rio)
EXTD=YEAR: 2005
EXTT0=
EXTT1=
EXTT2=
EXTT3=
EXTT4=
EXTT5=
EXTT6=
EXTT7=
EXTT8=
EXTT9=
PLAYORDER=
